name analog
datacolumns 19
datarows 23
range 0.0 0.011
endheader
time	ground_force_vx	ground_force_vy	ground_force_vz	ground_force_px	ground_force_py	ground_force_pz	l_ground_force_vx	l_ground_force_vy	l_ground_force_vz	l_ground_force_px	l_ground_force_py	l_ground_force_pz	ground_torque_x	ground_torque_y	ground_torque_z	l_ground_torque_x	l_ground_torque_y	l_ground_torque_z
0.0	-0.0	-0.0	-0.0	-3.699392080307007	49.12754440307617	-569.96630859375	11.887245178222656	-11.401930809020996	-42.463134765625	-0.0	-0.0	-0.0	-0.0	-0.0	-0.0	11295.744140625	1382.8314208984375	3989.037109375
0.0005	-0.0	-0.0	-0.0	-3.3340299129486084	49.18337631225586	-572.9566040039062	11.50269603729248	-11.313568115234377	-40.05290603637695	-0.0	-0.0	-0.0	-0.0	-0.0	-0.0	10358.599609375	1776.50390625	4012.771240234375
0.001	-0.0	-0.0	-0.0	-3.155381679534912	48.87644577026367	-572.6680297851562	11.704841613769531	-11.040210723876951	-38.02457046508789	-0.0	-0.0	-0.0	-0.0	-0.0	-0.0	9845.05859375	1518.4891357421875	4042.629150390625
0.0015	-0.0	-0.0	-0.0	-3.000434875488281	49.04624176025391	-575.0416870117188	12.266989707946776	-11.54534912109375	-37.424560546875	-0.0	-0.0	-0.0	-0.0	-0.0	-0.0	9721.7294921875	1380.4425048828125	4045.65234375
0.002	-0.0	-0.0	-0.0	-2.8465962409973145	48.697731018066406	-576.9671630859375	12.588671684265137	-11.225077629089355	-36.157676696777344	-0.0	-0.0	-0.0	-0.0	-0.0	-0.0	9696.912109375	1461.5235595703125	4148.01904296875
0.0025	-0.0	-0.0	-0.0	-2.3194732666015625	49.66219711303711	-579.6002197265625	12.419509887695312	-10.943734169006348	-36.08610916137695	-0.0	-0.0	-0.0	-0.0	-0.0	-0.0	9351.166015625	1499.581787109375	4061.81005859375
0.003	-0.0	-0.0	-0.0	-2.53091812133789	49.61355972290039	-583.0682983398438	12.628610610961914	-10.430070877075195	-34.37718963623047	-0.0	-0.0	-0.0	-0.0	-0.0	-0.0	9303.326171875	1246.618896484375	3908.363525390625
0.0035	-0.0	-0.0	-0.0	-2.3768038749694824	49.661563873291016	-586.8904418945312	11.975955963134766	-10.229204177856444	-34.59785461425781	-0.0	-0.0	-0.0	-0.0	-0.0	-0.0	8926.462890625	1258.0357666015625	3627.637451171875
0.004	-0.0	-0.0	-0.0	-1.97842538356781	50.1070671081543	-589.810546875	12.024574279785156	-9.900012016296388	-34.72580337524414	-0.0	-0.0	-0.0	-0.0	-0.0	-0.0	8943.9921875	1424.709716796875	3474.048583984375
0.0045000000000000005	-0.0	-0.0	-0.0	-1.9048453569412231	50.43995666503906	-593.5399169921875	12.02477741241455	-9.603235244750977	-35.0759162902832	-0.0	-0.0	-0.0	-0.0	-0.0	-0.0	9095.9248046875	1530.7178955078125	3385.145751953125
0.005	-0.0	-0.0	-0.0	-2.393084764480591	50.180419921875	-593.9115600585938	11.77476978302002	-9.2185697555542	-33.262935638427734	-0.0	-0.0	-0.0	-0.0	-0.0	-0.0	9146.28125	1320.2169189453125	3325.75634765625
0.0055	-0.0	-0.0	-0.0	-2.800649642944336	50.64150619506836	-598.2562866210938	11.89509391784668	-8.429633140563965	-33.138511657714844	-0.0	-0.0	-0.0	-0.0	-0.0	-0.0	9042.71484375	1311.20751953125	3203.992919921875
0.006	-0.0	-0.0	-0.0	-2.7501533031463623	50.60303115844727	-598.2260131835938	12.137760162353516	-7.956726551055908	-33.04646301269531	-0.0	-0.0	-0.0	-0.0	-0.0	-0.0	8962.2548828125	1420.437744140625	3223.3837890625
0.006500000000000001	-0.0	-0.0	-0.0	-3.0179250240325928	50.929325103759766	-600.69873046875	12.434988021850586	-7.16176176071167	-31.77279663085937	-0.0	-0.0	-0.0	-0.0	-0.0	-0.0	8934.8251953125	1537.80615234375	3366.8251953125
0.007	-0.0	-0.0	-0.0	-3.1450858116149902	49.80876541137695	-598.8732299804688	12.94407844543457	-6.7201104164123535	-30.725341796875	-0.0	-0.0	-0.0	-0.0	-0.0	-0.0	8651.31640625	1110.5765380859375	3273.116943359375
0.0075	-0.0	-0.0	-0.0	-3.0782527923583984	50.40275192260742	-596.8443603515625	12.77435302734375	-6.205336093902588	-32.350826263427734	-0.0	-0.0	-0.0	-0.0	-0.0	-0.0	8486.24609375	1339.45068359375	3332.435791015625
0.008	-0.0	-0.0	-0.0	-3.3676702976226807	49.71989059448242	-593.3717651367188	13.048052787780762	-5.799095630645752	-30.05682182312012	-0.0	-0.0	-0.0	-0.0	-0.0	-0.0	8516.90625	1262.6112060546875	3403.989013671875
0.0085	-0.0	-0.0	-0.0	-2.5793159008026123	49.37824249267578	-590.9578857421875	13.557697296142578	-5.380129337310791	-30.05666160583496	-0.0	-0.0	-0.0	-0.0	-0.0	-0.0	8318.15234375	1212.8251953125	3382.426025390625
0.009000000000000001	-0.0	-0.0	-0.0	-3.597864151000977	49.02172088623047	-589.220703125	13.100369453430176	-4.872598171234131	-30.95664596557617	-0.0	-0.0	-0.0	-0.0	-0.0	-0.0	8356.6845703125	1028.028076171875	3256.47802734375
0.0095	-0.0	-0.0	-0.0	-3.435481309890747	48.7252082824707	-587.6048583984375	13.824056625366213	-4.5853471755981445	-30.376190185546875	-0.0	-0.0	-0.0	-0.0	-0.0	-0.0	8147.7451171875	1072.7110595703125	3444.73779296875
0.01	-0.0	-0.0	-0.0	-3.315250396728516	48.390586853027344	-586.6032104492188	13.838882446289062	-4.23944091796875	-29.824373245239254	-0.0	-0.0	-0.0	-0.0	-0.0	-0.0	8177.6923828125	1058.8448486328125	3358.34228515625
0.0105	-0.0	-0.0	-0.0	-3.3828389644622803	48.13756942749024	-585.3455810546875	13.616467475891112	-3.952713012695313	-28.745141983032227	-0.0	-0.0	-0.0	-0.0	-0.0	-0.0	8353.69921875	1041.5399169921875	3447.27197265625
0.011	-0.0	-0.0	-0.0	-3.529029130935669	48.2944564819336	-583.8345947265625	14.356660842895508	-2.950671672821045	-29.38574981689453	-0.0	-0.0	-0.0	-0.0	-0.0	-0.0	8227.37109375	1189.5341796875	3613.94189453125
